<?xml version="1.0" standalone="no"?>
<!DOCTYPE svg PUBLIC "-//W3C//DTD SVG 20010904//EN"
 "http://www.w3.org/TR/2001/REC-SVG-20010904/DTD/svg10.dtd">
<svg version="1.0" xmlns="http://www.w3.org/2000/svg"
 width="1280.000000pt" height="867.000000pt" viewBox="0 0 1280.000000 867.000000"
 preserveAspectRatio="xMidYMid meet">
<metadata>
Created by potrace 1.15, written by Peter Selinger 2001-2017
</metadata>
<g transform="translate(0.000000,867.000000) scale(0.100000,-0.100000)"
fill="#000000" stroke="none">
<path d="M4320 7813 c-64 -31 -127 -43 -234 -43 -161 0 -321 -65 -432 -175
-51 -51 -64 -60 -85 -54 -85 24 -241 -4 -283 -50 -17 -18 -16 -19 27 -9 24 5
73 8 108 6 l64 -3 -76 -36 c-42 -20 -102 -60 -132 -88 -64 -57 -106 -81 -192
-107 -33 -10 -64 -21 -68 -25 -5 -4 12 -15 37 -24 34 -13 64 -16 116 -13 l70
5 -36 -40 c-46 -51 -96 -158 -123 -264 -26 -103 -26 -104 5 -57 63 95 146 159
88 68 -40 -63 -74 -149 -74 -189 0 -14 7 -42 15 -62 19 -46 19 -161 0 -233
-18 -69 -19 -66 3 -47 17 15 21 13 73 -36 33 -32 64 -74 79 -107 49 -110 176
-325 233 -391 31 -38 57 -71 57 -74 0 -3 -26 -5 -57 -5 -165 0 -344 -110 -387
-237 -13 -38 -16 -96 -16 -319 l0 -273 -60 -83 c-87 -121 -156 -264 -185 -384
-14 -56 -32 -118 -40 -138 -8 -19 -15 -56 -15 -81 0 -38 5 -52 30 -77 27 -26
36 -30 67 -25 38 6 88 47 99 79 3 10 27 30 54 43 l49 25 3 -488 c3 -451 4
-490 21 -521 19 -33 19 -34 -9 -110 -15 -42 -44 -113 -65 -158 l-37 -82 51
-24 c29 -13 87 -36 130 -52 42 -15 77 -31 77 -35 0 -4 -27 -121 -59 -261 -33
-139 -59 -254 -58 -255 1 -1 54 -7 117 -14 63 -6 117 -13 120 -16 3 -3 24
-209 46 -457 l42 -452 -29 -23 c-68 -55 -81 -154 -35 -275 44 -118 96 -196
148 -223 38 -20 125 -17 175 5 45 21 47 27 73 191 5 36 25 149 44 251 48 256
93 583 107 777 l13 164 30 -6 c17 -3 75 -8 128 -12 l98 -7 2 208 3 208 134
-179 c74 -98 135 -181 137 -182 3 -4 180 17 206 24 22 6 123 -115 167 -201 30
-61 31 -65 17 -94 -31 -58 -139 -101 -328 -128 l-118 -17 -49 -121 c-120 -294
-133 -487 -37 -546 57 -35 196 -20 248 28 67 60 82 215 33 352 l-12 36 151 0
c169 1 240 15 339 68 152 80 221 244 196 466 -6 51 -19 121 -30 155 -10 33
-19 64 -19 68 0 3 41 12 90 19 75 10 90 15 85 28 -97 316 -165 555 -158 561 4
4 43 22 86 40 42 17 77 33 77 35 0 1 -7 20 -16 41 -9 22 -30 77 -46 124 l-30
85 2 359 1 360 59 63 c238 254 305 566 176 822 -40 78 -134 200 -194 252 l-42
36 0 150 c0 177 -11 220 -75 291 -71 79 -212 142 -317 142 -26 0 -48 3 -48 6
0 3 23 31 51 63 28 31 70 86 93 122 22 37 67 97 99 135 32 38 69 92 83 121 15
29 41 68 59 87 59 62 54 149 -12 218 -19 20 -27 41 -30 80 l-5 53 22 -41 c11
-23 32 -52 47 -65 l26 -24 -7 25 c-4 14 -9 64 -13 113 -5 67 -2 102 12 153 31
114 6 218 -71 304 -22 24 -52 51 -69 62 -24 15 -26 18 -10 18 33 -1 100 -36
144 -75 39 -36 41 -36 41 -14 0 89 -53 155 -164 210 -56 27 -110 65 -176 124
-93 83 -210 155 -254 155 -49 1 -48 18 3 25 54 7 113 0 173 -21 49 -17 48 -5
-1 39 -87 78 -156 94 -309 70 -163 -25 -424 -22 -421 5 0 4 23 18 52 32 32 16
58 38 70 58 11 18 18 34 16 35 -2 2 -24 -7 -49 -20z"/>
<path d="M7450 7455 c-108 -18 -183 -44 -287 -100 l-83 -45 -40 20 c-22 11
-81 32 -131 46 -79 23 -105 26 -189 22 -82 -4 -108 -10 -164 -36 -149 -70
-245 -212 -291 -432 -18 -87 -32 -202 -45 -380 -21 -297 -46 -420 -96 -480
-14 -16 -24 -30 -21 -30 7 0 109 58 167 95 74 46 161 115 234 185 64 61 68 63
62 35 -3 -16 -22 -131 -42 -255 -31 -196 -35 -240 -31 -340 12 -245 108 -459
288 -639 112 -112 290 -222 427 -262 23 -7 42 -15 42 -19 0 -4 -41 -30 -91
-59 -214 -122 -353 -265 -394 -405 -35 -121 -59 -274 -59 -371 0 -122 24 -185
90 -243 52 -47 95 -61 201 -69 l83 -6 10 -41 c6 -23 19 -65 29 -93 18 -51 18
-55 0 -142 -65 -319 -169 -589 -304 -792 -36 -54 -65 -100 -65 -103 0 -9 79
-47 190 -91 122 -49 114 -29 82 -215 -36 -208 -46 -316 -46 -527 -1 -112 -4
-203 -8 -203 -4 0 -28 6 -54 12 -40 11 -47 11 -55 -4 -6 -10 -17 -14 -30 -11
-11 3 -30 1 -42 -5 -12 -6 -33 -13 -47 -15 -60 -12 -172 -46 -206 -64 -21 -11
-47 -31 -58 -46 -19 -26 -19 -28 -3 -63 47 -98 258 -109 572 -29 202 51 181
30 188 187 12 264 66 530 149 735 l44 108 44 -2 c25 -1 133 -4 240 -7 l194 -6
23 -87 c114 -429 420 -592 880 -472 65 17 81 18 101 7 30 -16 42 -45 31 -80
-9 -34 -1 -68 17 -68 9 0 14 -12 14 -35 0 -19 5 -35 10 -35 6 0 10 -6 10 -12
0 -15 49 -137 75 -189 25 -49 75 -99 100 -99 12 0 32 10 44 21 73 68 68 224
-14 465 -41 119 -111 279 -122 279 -47 -1 -131 -19 -144 -31 -27 -25 -155 -46
-245 -41 -204 12 -307 133 -330 387 l-6 77 48 13 c108 29 414 158 414 174 0 2
-29 62 -65 133 l-65 129 53 56 c65 69 111 145 145 240 26 72 27 78 30 371 l4
299 40 40 c118 118 120 287 4 476 l-44 70 -4 184 c-4 155 -9 193 -27 248 -50
144 -159 281 -280 350 -33 19 -61 39 -61 43 0 5 13 27 29 50 15 23 38 61 50
85 16 32 27 42 46 42 41 0 104 31 126 61 13 19 29 75 45 161 25 137 23 180
-10 217 -14 15 -13 25 8 91 60 187 81 412 53 565 -8 44 -13 82 -11 83 10 12
132 -70 182 -122 73 -75 102 -131 136 -261 15 -55 40 -128 56 -163 103 -222
346 -451 663 -627 l68 -37 -30 43 c-66 93 -89 211 -116 569 -29 399 -63 577
-140 737 -116 239 -331 357 -587 323 -94 -13 -229 -55 -317 -99 l-60 -31 -48
68 c-64 90 -179 209 -267 276 -228 175 -683 289 -966 241z m-403 -3377 c-3 -7
-5 -2 -5 12 0 14 2 19 5 13 2 -7 2 -19 0 -25z"/>
</g>
</svg>
