<svg xmlns="http://www.w3.org/2000/svg" xmlns:xlink="http://www.w3.org/1999/xlink" version="1.1" width="1000" height="1000" viewBox="0 0 1000 1000" xml:space="preserve">
<desc>Created with Fabric.js 3.5.0</desc>
<defs>
</defs>
<rect x="0" y="0" width="100%" height="100%" fill="#ffffff"/>
<g transform="matrix(1.0292 0 0 0.9823 496.5612 423.2405)" id="616020">
<g style="" vector-effect="non-scaling-stroke">
		<g transform="matrix(1 0 0 1 74.2707 38.8745)" id="Capa_1">
<path style="stroke: none; stroke-width: 1; stroke-dasharray: none; stroke-linecap: butt; stroke-dashoffset: 0; stroke-linejoin: miter; stroke-miterlimit: 4; is-custom-font: none; font-file-url: none; fill: rgb(235,20,100); fill-rule: nonzero; opacity: 1;" transform=" translate(-218.8747, -183.4785)" d="M 284.275 176.745 c 5.099 -3.41 6.468 -10.308 3.058 -15.405 l -38.876 -58.124 c -5.15 -7.695 -13.022 -11.707 -21.287 -11.707 h -16.658 c -9.588 0 -17.229 5.802 -22.101 13.327 c -0.487 0.753 2.422 -3.679 -37.983 56.486 c -3.42 5.092 -2.063 11.991 3.028 15.411 c 5.089 3.418 11.99 2.065 15.411 -3.028 l 16.656 -24.802 l 0.034 112.663 c 0 7.667 6.215 13.882 13.882 13.882 c 7.667 0 13.882 -6.215 13.882 -13.882 v -62.471 h 11.107 v 62.471 c 0 7.667 6.215 13.882 13.882 13.882 c 7.667 0 13.882 -6.215 13.882 -13.882 c 0 -119.736 -0.033 -111.963 -0.033 -112.865 l 16.712 24.986 C 272.285 178.793 279.188 180.15 284.275 176.745 z" stroke-linecap="round"/>
</g>
		<g transform="matrix(1 0 0 1 74.2695 -97.349)" id="Capa_1">
<path style="stroke: none; stroke-width: 1; stroke-dasharray: none; stroke-linecap: butt; stroke-dashoffset: 0; stroke-linejoin: miter; stroke-miterlimit: 4; is-custom-font: none; font-file-url: none; fill: rgb(235,20,100); fill-rule: nonzero; opacity: 1;" transform=" translate(-218.8735, -47.2549)" d="M 218.874 80.75 c 14.696 0 26.615 -11.908 26.615 -26.614 c 0 -9.582 -5.076 -17.983 -12.686 -22.668 c 1.573 -1.112 3.405 -2.139 5.57 -3.017 c 0.909 -0.368 1.521 -1.231 1.567 -2.211 c 0.047 -0.981 -0.481 -1.897 -1.352 -2.35 c -4.209 -2.186 -9.338 -2.231 -14.178 -1.303 c 0.821 -1.538 1.855 -3.109 3.183 -4.702 c 0.628 -0.754 0.761 -1.804 0.34 -2.689 c -0.421 -0.886 -1.318 -1.446 -2.3 -1.436 c -9.728 0.111 -18.649 9.972 -22.203 15.869 c -0.826 1.37 -1.446 2.821 -1.837 4.284 c -5.71 4.881 -9.335 12.129 -9.335 20.223 C 192.259 68.842 204.178 80.75 218.874 80.75 z" stroke-linecap="round"/>
</g>
		<g transform="matrix(1 0 0 1 -74.2703 38.875)" id="Capa_1">
<path style="stroke: none; stroke-width: 1; stroke-dasharray: none; stroke-linecap: butt; stroke-dashoffset: 0; stroke-linejoin: miter; stroke-miterlimit: 4; is-custom-font: none; font-file-url: none; fill: rgb(235,20,100); fill-rule: nonzero; opacity: 1;" transform=" translate(-70.3336, -183.479)" d="M 100.382 104.202 C 95.588 96.932 87.96 91.509 78.63 91.509 H 61.971 c -9.491 0 -17.747 5.292 -21.977 13.086 c -0.514 0.74 -37.605 55.979 -38.107 56.728 c -3.42 5.092 -2.063 11.991 3.028 15.411 c 5.089 3.418 11.99 2.065 15.411 -3.028 l 16.656 -24.802 v 0.307 l -15.118 61.638 c -0.706 2.875 -0.051 5.915 1.776 8.244 c 1.828 2.33 4.624 3.69 7.585 3.69 h 5.791 v 38.784 c 0 7.667 6.215 13.882 13.882 13.882 s 13.882 -6.215 13.882 -13.882 v -38.784 h 11.106 v 38.784 c 0 7.667 6.215 13.882 13.882 13.882 c 7.667 0 13.882 -6.215 13.882 -13.882 v -38.784 h 5.726 c 2.961 0 5.757 -1.36 7.585 -3.69 c 1.827 -2.329 2.482 -5.369 1.776 -8.244 l -15.119 -61.642 h -0.001 v -0.403 l 16.724 24.902 c 3.421 5.094 10.323 6.445 15.411 3.028 c 5.092 -3.42 6.448 -10.319 3.028 -15.411 C 97.759 100.238 100.862 104.931 100.382 104.202 z" stroke-linecap="round"/>
</g>
		<g transform="matrix(1 0 0 1 -74.2675 -86.3862)" id="Capa_1">
<path style="stroke: none; stroke-width: 1; stroke-dasharray: none; stroke-linecap: butt; stroke-dashoffset: 0; stroke-linejoin: miter; stroke-miterlimit: 4; is-custom-font: none; font-file-url: none; fill: rgb(235,20,100); fill-rule: nonzero; opacity: 1;" transform=" translate(-70.3365, -58.2178)" d="M 17.233 88.896 c 0.978 0.081 1.912 -0.414 2.396 -1.268 c 7.311 -12.904 18.78 -11.81 21.349 -16.575 c 0.354 -0.658 0.633 -1.336 0.839 -2.025 c 0.783 0.844 1.885 1.34 3.044 1.34 c 0.458 0 0.925 -0.076 1.381 -0.237 c 0.77 -0.271 1.401 -0.751 1.873 -1.347 c 4.763 7.21 12.935 11.967 22.221 11.967 c 9.285 0 17.458 -4.757 22.22 -11.967 c 0.472 0.596 1.103 1.076 1.874 1.347 c 0.457 0.161 0.923 0.237 1.381 0.237 c 1.159 0 2.261 -0.496 3.044 -1.34 c 0.206 0.689 0.484 1.367 0.839 2.025 c 2.568 4.765 14.037 3.671 21.348 16.575 c 0.483 0.854 1.418 1.349 2.396 1.268 c 0.979 -0.081 1.819 -0.724 2.155 -1.646 c 3.329 -9.14 -2.747 -20.968 -7.012 -26.376 c -3.668 -4.653 -9.315 -7.166 -14.532 -4.355 c -0.186 0.1 -0.357 0.215 -0.534 0.323 l 0.043 -0.122 c 0.763 -2.17 -0.378 -4.547 -2.548 -5.31 c -1.479 -0.521 -3.04 -0.143 -4.134 0.827 c -0.976 -13.8 -12.483 -24.706 -26.539 -24.706 c -14.058 0 -25.565 10.907 -26.54 24.707 c -1.096 -0.97 -2.658 -1.348 -4.134 -0.828 c -2.17 0.763 -3.311 3.14 -2.548 5.31 l 0.043 0.122 c -0.177 -0.109 -0.349 -0.224 -0.533 -0.323 c -5.217 -2.811 -10.864 -0.299 -14.533 4.355 c -4.265 5.408 -10.341 17.236 -7.012 26.376 C 15.414 88.172 16.255 88.815 17.233 88.896 z" stroke-linecap="round"/>
</g>
</g>
</g>
</svg>