<?xml version="1.0" encoding="utf-8"?>
<!-- Svg Vector Icons : http://www.onlinewebfonts.com/icon -->
<!DOCTYPE svg PUBLIC "-//W3C//DTD SVG 1.1//EN" "http://www.w3.org/Graphics/SVG/1.1/DTD/svg11.dtd">
<svg version="1.1" xmlns="http://www.w3.org/2000/svg" xmlns:xlink="http://www.w3.org/1999/xlink" x="0px" y="0px" viewBox="0 0 1000 1000" xml:space="preserve">
<metadata> Svg Vector Icons : http://www.onlinewebfonts.com/icon </metadata>
<g><g transform="translate(0.000000,511.000000) scale(0.100000,-0.100000)">
<path fill = "#8ac640" d="M4509.2,4987.8c-1903.9-184-3559.8-1515.4-4160.4-3340C16.6,630.7,16.6-429.9,351.4-1436.7C1204.9-4005,3977.7-5392.6,6545.9-4539.1c2568.3,853.6,3955.9,3626.3,3102.4,6194.6C8925.1,3830.2,6798.9,5207.6,4509.2,4987.8z M5592.7,4568.7c1285.4-171.2,2415-874,3140.7-1952.4c1009.4-1497.5,1019.7-3470.4,30.7-4973c-840.8-1275.2-2241.2-2031.6-3764.3-2031.6c-1484.8,0-2857,718.1-3700.4,1937.1c-1052.9,1518-1063.1,3570-25.6,5082.9c738.5,1078.4,1888.5,1781.2,3189.3,1947.3C4731.5,4614.7,5298.9,4609.6,5592.7,4568.7z"/>
<path fill = "#8ac640" d="M1601,1729.6c-605.7-1408.1,43.4-3058.9,1464.3-3728.5c368-173.8,577.5-222.3,1040.1-235.1c217.2-5.1,408.9,0,426.8,10.2c23,15.3,20.4,79.2-7.7,263.2c-17.9,132.9-35.8,324.6-35.8,421.7l-2.6,178.9l-222.3,102.2C3366.9-843.8,2659-207.5,2278.2,531c-89.4,173.8-99.7,207-48.5,140.6c38.3-48.6,204.4-222.3,365.4-385.9c373.1-370.6,792.2-654.2,1454.1-986.4L4522-938.4l58.8,224.9c30.7,122.7,86.9,306.7,122.7,411.4l66.4,189.1L4660,30.1c-186.6,247.9-582.7,623.6-828,787.1c-283.6,189.1-536.7,311.8-1017.1,493.2c-426.8,161-707.9,288.8-953.2,431.9c-99.7,56.2-186.6,104.8-196.8,104.8C1657.3,1847.1,1626.6,1793.4,1601,1729.6z"/>
<path fill = "#8ac640" d="M7210.4,1691.2C6216.3,1543,5265.6,653.7,4887.4-478.4c-199.3-592.9-219.8-1147.4-66.4-1666.2c56.2-181.4,84.3-209.6,288.8-260.7c56.2-12.8,69-7.7,69,33.2c0,84.4,176.3,667,283.7,935.3c245.3,613.3,669.5,1201.1,1124.4,1558.9l158.4,125.2L6591.9,53.1c-388.4-490.7-651.7-1075.9-871.4-1949.8c-56.2-224.9-109.9-442.1-117.5-483l-17.9-71.6l122.7,17.9c163.6,23,554.6,153.3,641.4,214.6c38.3,25.6,155.9,99.7,260.7,163.6c383.3,232.5,835.7,682.3,1127,1116.8c166.1,245.3,424.2,776.9,557.1,1144.9c140.6,388.4,342.4,1075.9,327.1,1114.2c-23,56.2-467.6,270.9-661.9,319.4C7724,1701.4,7409.7,1721.9,7210.4,1691.2z"/></g></g>
</svg>