<svg xmlns="http://www.w3.org/2000/svg" xmlns:xlink="http://www.w3.org/1999/xlink" version="1.1" width="1000" height="1000" viewBox="0 0 1000 1000" xml:space="preserve">
<desc>Created with Fabric.js 3.5.0</desc>
<defs>
</defs>
<rect x="0" y="0" width="100%" height="100%" fill="#ffffff"/>
<g transform="matrix(0.177 0 0 0.177 500.7718 500.7531)" id="590510">
<path style="stroke: none; stroke-width: 1; stroke-dasharray: none; stroke-linecap: butt; stroke-dashoffset: 0; stroke-linejoin: miter; stroke-miterlimit: 4; is-custom-font: none; font-file-url: none; fill: rgb(207,76,74); fill-rule: nonzero; opacity: 1;" vector-effect="non-scaling-stroke" transform=" translate(-875.1291, -854.156)" d="M 1686.968 1121.814 c -4.04 -9.47 -12.01 -16.49 -19.69 -23.001 c -1.12 -29.861 -2.24 -59.711 -3.28 -89.572 c 2.32 -0.95 4.64 -1.93 6.98 -2.88 c -1.424 -10.947 -4.063 -72.41 -12.58 -125.763 c -4.509 -25.997 0.833 -37.476 -80.182 -79.762 c -2.72 -0.97 -3.47 -3.84 -4.31 -6.26 c 17.418 -6.552 39.687 -21.48 50.041 -36.181 c 10.339 -15.689 12.107 -39.183 11.24 -57.982 c -0.151 -15.401 -3.347 -1.338 4.9 -28.291 c 3.86 1.17 7.66 2.53 11.45 3.95 c 2.458 -17.14 3.734 -35.5 2.4 -54.561 c 0.55 -1.74 0.48 -3.6 -0.43 -5.18 c -0.06 -0.46 -0.17 -1.37 -0.22 -1.84 c 0.48 -1.31 0.3 -2.76 -0.58 -3.84 c -6.747 -52.812 -44.97 -75.828 -97.093 -80.562 c -14.15 -1.35 -27.641 5.98 -37.431 15.67 c -54.807 -12.496 -88.261 22.636 -97.292 78.692 c -6.01 37.823 -5.181 64.988 16.9 99.813 c 11.29 17.62 25.441 33.471 41.811 46.511 c 0.09 -2.23 0.16 -4.45 0.27 -6.66 c 2.42 2.78 4.99 5.43 7.71 7.94 c -13.89 5.136 -19.64 14.208 -19.95 21.39 c -69.024 37.472 -63.374 31.91 -70.352 43.821 c -13.912 24.875 -27.57 77.965 -34.311 105.593 c -1.13 4.25 -1.61 8.76 -3.77 12.66 c -1.25 2.36 -2.11 5.07 -1.53 7.75 c 1.38 1.25 3.06 2.11 4.65 3.09 c -2.32 3.5 -4.6 7.01 -7.11 10.36 c -0.613 -9.295 0.584 -21.149 -14.67 -40.271 c -1.93 -2.47 -4.57 -4.66 -4.94 -7.96 c -14.389 -72.747 -16.588 -82.881 -16.601 -93.522 c -4.438 -97.547 -7.286 -98.913 -4.1 -135.823 c 3.447 -39.529 9.126 -74.251 -4.21 -116.903 c -0.99 -2.7 0.82 -5.27 1.61 -7.77 c -64.037 -57.402 -70.801 -59.648 -101.583 -77.942 c -0.03 -5.86 -0.1 -11.73 0.06 -17.581 c 2.116 1.711 24.892 20.949 28.241 25.081 c 20.878 24.482 49.703 29.09 85.322 60.262 c 2.2 1.86 4.17 4.43 7.26 4.74 c -3.052 -12.801 -31.735 -50.735 -27.141 -76.052 c 5.079 -32.908 14.36 -38.434 14.3 -79.242 c -1.932 -81.171 15.179 -77.462 5.6 -144.444 c -4.075 -27.144 -14.886 -64.192 -31.991 -71.342 c -4.674 -1.878 -91.203 -73.495 -186.085 16.33 c -21.419 21.845 -22.769 76.652 -24.061 88.032 c -0.95 1.02 -1.1 2.47 -0.47 3.7 c -0.09 1.4 -0.18 2.79 -0.24 4.19 c -1.29 0.882 -0.868 1.703 -0.57 4.19 c -0.95 0.75 -1.19 2 -0.71 3.08 c -0.03 0.47 -0.11 1.41 -0.16 1.88 c -0.85 0.82 -1.05 2.03 -0.57 3.1 c -0.04 0.47 -0.13 1.42 -0.17 1.89 c -0.8 0.65 -0.97 1.43 -0.52 2.37 c -10.065 56.952 -34.882 102.347 -73.942 140.384 c 0.31 0.43 0.91 1.3 1.22 1.73 c 13.395 -4.853 30.827 -11.173 40.981 -12.31 c -1.879 8.864 -22.124 52.152 -58.402 81.652 c 0 0.36 0.02 1.09 0.02 1.46 c 18.852 -3.466 42.54 -18.947 73.972 -16.4 c -22.484 11.97 -26.753 12.503 -47.261 31.361 c -5.346 4.95 -21.272 9.938 -28.561 41.271 c 0 0 -4.292 25.714 -16.46 81.602 c -31.186 -84.616 -55.38 -160.187 -60.332 -166.464 c -19.363 -25.374 -81.851 -57.183 -85.462 -60.062 c -4.705 -21.746 -1 -26.906 -33.561 -52.821 c 30.848 13.435 37.268 17.028 75.062 -19.97 c 42.593 -41.894 41.021 -45.75 38.721 -110.083 c -0.327 -13.403 -0.408 -4.105 5.67 -24.161 c 0.27 -0.05 0.81 -0.16 1.08 -0.21 c -0.852 -5.162 6.604 -20.29 1.56 -34.411 c 6.03 0.73 12.59 1.97 18.37 -0.58 c 9.687 -4.419 -3.645 -51.88 -19.91 -65.412 c -2.54 -2.3 -6.66 -2.75 -8.18 -6.09 c -14.564 -30.676 -8.186 -75.791 -110.693 -82.252 c -14.716 -2.753 -52.834 1.551 -77.682 15.06 c -32.518 17.279 -50.779 51.269 -57.611 85.222 c -15.568 58.037 20.323 129.223 25.791 149.984 c -1.518 2.567 -10.191 11.183 -16.221 17.931 c 32.086 9.128 32.159 8.593 34.651 9.96 c 2.84 11.94 4.43 24.201 5.45 36.431 c -0.258 4.999 4.046 2.068 -22.411 15.67 c -6.036 3.221 -3.212 0.166 -16.62 23.331 c -2.71 5.29 -6.61 10.05 -8.33 15.79 C 543.728 480.5 535.055 511.182 523.048 544.819 c -16.685 47.82 -30.789 118.634 -38.431 168.644 c 4.93 2.22 9.82 4.54 14.77 6.72 c -20.404 89.013 -31.435 123.563 62.032 285.927 c -13.036 -1.27 -69.733 -4.876 -90.342 -14.04 c -1.694 -2.602 2.004 5.223 -60.252 -142.204 c 17.999 -17.21 7.144 -18.64 -17.94 -21.55 c -1.65 -2.52 -3.38 -5.35 -6.34 -6.45 c -2.15 -1 -4.99 -0.77 -6.47 -2.9 c -16.387 -20.2 -19.906 -21.778 -24.751 -8.5 c -12.104 0.943 -20.906 -8.864 -37.951 -12.75 c 11.285 -2.804 43.012 -8.764 55.271 -45.541 c 8.111 -23.519 6.633 -49.719 2.68 -74.332 c -0.006 -4.295 11.263 -55.82 -7.29 -80.902 c 18.848 -17.22 15.01 -32.713 -20.981 -35.981 c -3.46 -0.48 -7.38 0.25 -10.33 -2.01 c -106.069 -71.875 -190.939 21.737 -181.895 111.763 c 0.24 2.84 0.92 5.65 0.98 8.52 c -0.55 1.92 -1.89 3.47 -2.8 5.22 c -1.01 1.78 -1.28 3.85 -2.1 5.71 c -2.894 2.258 -46.44 21.735 -50.721 53.381 c -4.366 37.6 2.782 69.636 -0.33 107.073 c -0.588 6.049 -7.792 40.556 -11.47 61.562 c 31.288 -32.446 53.031 -61.862 53.031 -61.862 s -9.307 13.334 -16.66 26.441 c 0.68 1.44 1.88 2.99 1.04 4.64 c -47.41 138.916 -39.461 164.052 -32.351 198.305 c 7.366 34.338 19.92 72.202 19.92 72.202 c -2.65 5.04 -6.3 9.6 -8.36 14.98 c -8.443 18.028 3.332 43.148 25.231 48.501 c -15.292 60.944 -31.022 135.863 -62.202 179.515 c 5.84 1.67 9.85 6.79 15.61 8.58 c 6.38 0.212 12.584 -10.603 20.411 -10.95 c 3.26 2.04 5.2 5.79 8.83 7.33 c 1.964 -0.566 13.948 -7.081 26.311 -7.57 c 8.732 12.791 -3.745 10.52 26.181 6.2 c -0.35 2.74 -0.14 5.69 -1.2 8.28 c -1.9 2.35 -4.4 4.11 -6.59 6.18 c -40.825 37.429 -55.661 62.802 -55.661 62.802 c -8.24 1.387 -9.251 -2.496 -30.721 15.68 c -7.033 3.652 -16.611 12.581 -15.8 20.191 c 5.577 64.879 41.857 151.298 85.822 141.814 c 49.044 -11.418 28.286 -25.159 10.2 -140.703 c 92.956 -54.574 97.767 -64.786 109.373 -108.353 c 5.52 1.19 10.43 4.64 16.14 4.95 c 8.19 -0.865 13.696 -13.932 20.241 -11.31 c 6.41 2.57 11.08 8.36 17.78 10.35 c 5.25 1.552 10.683 -8.329 17.26 -16.83 c 38.966 48.993 28.364 32.136 69.512 130.193 c 18.419 43.581 18.052 41.599 17.9 44.331 c -7.051 31.998 12.839 44.458 19.6 53.991 c 2.35 2.93 4.23 6.6 7.84 8.21 c 7.222 4.207 15.704 8.003 34.551 5.69 c 3.139 -0.566 1.699 0.02 34.831 -21.36 c 7.467 -4.759 5.754 -5.052 22.871 -9.32 c 5.254 -1.737 28.251 11.69 36.041 11.69 c 23.25 0.685 67.334 5.895 102.203 -13.3 c 13.214 -6.782 1.653 -56.038 -8.92 -61.822 c -20.265 -11.659 -46.218 -12.542 -64.512 -25.421 c -0.602 -11.482 -2.862 -4.731 7.91 -47.571 c 5.15 -19.549 8.571 -31.14 25.831 -65.442 c 92.426 -182.426 56.213 -33.385 106.543 -361.949 c 0.41 1.007 65.551 174.826 65.542 179.455 c -5.99 71.952 -4.81 144.384 -12.93 216.186 c -5.213 43.903 -10.168 57.136 -11.5 64.462 c 3.06 -0.33 6.11 -0.68 9.16 -1.01 c -14.457 21.962 -5.678 72.489 4.35 92.162 c 5.48 9.613 1.985 6.224 46.821 12.58 c 8.59 1.64 17.36 0.37 26.041 0.81 c 0.62 -3.08 1.22 -6.17 1.82 -9.25 c 12.082 1.109 10.512 4.496 15.881 5.12 c 20.593 0.455 93.448 -16.41 107.833 -32.531 c 2.01 -1.8 3.17 -5.24 6.29 -5.21 c 14.566 -0.847 39.119 -4.479 38.531 -19.141 c -0.323 -15.206 -22.684 -27.854 -25.131 -33.591 c -0.43 -1.006 -5.3 -12.566 -6.12 -15.51 c -4.843 -22.634 -6.721 -22.35 -7.53 -30.811 c -0.261 -2.175 -6.142 -55.857 -4.35 -59.552 c 94.873 -203.247 89.024 -191.066 90.362 -193.085 c 5.6 -1.09 11.39 -0.89 17.07 -1.47 c 66.309 -4.465 69.229 3.14 91.022 2.95 c 27.491 81.432 39.941 166.854 63.482 249.366 c 6.58 35.091 2.517 29.586 -0.32 38.321 c -15.477 37.365 -4.093 36.836 -1.75 57.212 c 3.556 27.425 -10.725 42.092 24.431 37.901 c -0.11 -7.18 -0.87 -14.32 -0.87 -21.491 c 14.74 8.07 27.431 19.251 41.161 28.831 c 21.975 15.333 84.623 14.645 109.403 2.75 c 10.142 -8.716 8.258 -9.78 3.2 -21.711 c 34.821 11.285 69.978 1.667 76.692 -17.061 c 5.345 -14.342 -6.957 -28.051 -11.86 -35.041 c -17.479 -24.712 -11.301 -12.072 -22.321 -46.021 c 4.14 -1.07 8.38 -2 12.24 -3.91 c -0.205 -6.303 2.706 -106.513 3.02 -116.283 c 1.834 -9.644 28.607 -136.419 30.651 -146.054 c 28.556 144.05 24.242 98.6 27.591 265.077 c 0.79 0.22 1.59 0.45 2.43 0.7 c -0.912 27.937 -5.231 19.524 -5.99 44.931 c -0.367 12.883 -1.746 22.431 4.72 27.041 c 26.348 19.357 27.062 20.135 31.211 22.341 c 29.295 15.612 83.816 6.972 89.232 -20.291 c 2.161 -10.552 -2.946 -20.82 -13.941 -35.301 c -12.853 -15.784 -17.004 -13.593 -26.79 -22.831 c -10.012 -8.812 -7.546 -5.671 -9.22 -12.47 c 5.75 -1.33 11.35 -3.23 16.71 -5.71 c -20.031 -238.544 -15.426 -187.873 -30.791 -338.739 c 4.14 -0.46 8.28 -1.08 12.43 -1.6 c 1.687 14.014 3.59 31.438 16.571 35.081 c 6.77 1.94 13.72 4.58 20.89 3.58 c 11.944 -1.668 29.988 -14.847 33.111 -21.361 C 1698.394 1148.274 1691.257 1134.522 1686.968 1121.814 z M 181.879 1093.963 c -23.281 35.282 -18.421 23.719 -30.181 48.211 c -0.23 0.13 -0.7 0.4 -0.94 0.54 c -0.731 -1.457 -19.704 -116.686 -17.87 -120.043 c 10.32 -22.36 20.311 -44.871 30.721 -67.182 c 17.241 50.656 20.275 46.586 20.781 114.573 c -1.22 -0.06 -2.42 -0.1 -3.63 -0.12 C 173.143 1085.932 179.532 1090.766 181.879 1093.963 z M 200.109 814.876 c -7.04 -16.043 -9.683 -11.159 -26.371 8.16 c -4.009 1.803 -5.567 -0.651 -11.36 7.81 c -3.02 0.24 -6.03 0.65 -9.04 1.02 c 28.281 -47.88 21.22 -59.505 13.25 -113.033 c 1.23 -0.06 2.45 -0.11 3.68 -0.13 c 13.943 24.425 18 13.454 30.761 45.221 c 5.34 14.33 9.71 29.001 14.96 43.371 C 210.83 810.066 205.799 813.266 200.109 814.876 z M 230.39 799.576 c 0.19 -7.63 1.78 -15.151 3.99 -22.421 c 3.14 1.43 6.24 2.95 9.41 4.35 C 242.833 795.332 233.677 797.852 230.39 799.576 z M 463.796 1499.274 c -2.74 -10.09 -4.94 -20.34 -7.23 -30.541 c 7.01 2.48 14.02 4.98 21.041 7.45 C 464.041 1493.681 472.905 1478.803 463.796 1499.274 z M 456.416 1468.223 c -5.84 -24.731 -11.57 -49.501 -19.03 -73.802 c 2.53 1.08 5.34 2.98 8.16 1.64 c 3.81 -1.62 4.15 -6.3 6.45 -9.24 c 2.668 -3.473 15.938 1.309 28.521 1.99 c 8.86 0.985 4.128 -10.184 10.1 -11.06 c 5.41 -0.45 10.77 0.88 16.09 1.72 C 489.977 1409.071 473.336 1438.732 456.416 1468.223 z M 579.739 1250.447 c -20.681 36.571 -41.361 73.132 -62.072 109.683 c -76.097 -73.354 -74.886 -66.271 -95.532 -147.924 c -7.747 -29.268 -7.858 -49.293 -56.491 -124.553 c 1.07 -2.11 0.86 -4.36 -0.53 -6.23 c 9.852 -9.265 8.194 -22.989 2.63 -25.601 c 19.066 -125.52 14.283 -86.692 18.341 -127.053 c 7.25 14.587 49.694 109.257 51.751 112.253 c 21.463 11.557 77.117 10.431 109.953 16.38 c 3.48 0.35 5.66 3.35 8.16 5.45 c 1.64 1.09 0.92 3.16 1.1 4.83 c 0.028 13.644 20.22 22.766 32.181 27.631 C 583.395 1191.798 580.972 1246.323 579.739 1250.447 z M 605.79 882.558 c 1.13 0.22 2.25 0.43 3.39 0.68 c -2.1 2.77 -4.79 5.09 -6.64 8.06 c -3.29 6.46 -5.94 13.23 -9.39 19.61 c -27.345 -119.516 -16.824 -88.859 -4.75 -169.434 c 2.7 0.36 5.4 0.8 8.11 1.22 c 4.5 -16.18 9.03 -32.351 13.63 -48.491 C 608.873 715.524 601.171 797.548 605.79 882.558 z M 789.504 419.826 c -0.24 -5.68 -0.33 -11.4 0.48 -17.03 C 795.814 419.568 792.369 417.728 789.504 419.826 z M 854.166 890.998 c -2.98 -7.38 -9.69 -12.13 -15.49 -17.15 c 3.86 -1.35 7.71 -2.71 11.55 -4.11 c -0.997 -23.096 -2.568 -36.948 -1.8 -42.691 c 8.256 -68.889 16.203 -137.238 17.39 -144.174 c 7.68 18.951 15.06 38.031 22.601 57.031 c 2.35 -1.35 4.7 -2.72 7.06 -4.09 c 7.77 18.89 15.151 37.931 22.831 56.861 c 2.04 5.21 0.93 -9.43 6.01 133.644 c -0.141 3.8 0.76 1.153 -7.43 11.63 c -3.16 4.276 -7.941 3.715 -13.05 16.911 c -5.082 13.8 -6.617 36.111 1.75 48.201 c 4.798 7.178 13.156 6.551 14.75 8.08 c 15.995 13.552 19.644 4.906 37.901 -2.1 c -4.938 6.402 -44.503 53.417 -49.481 59.112 C 894.976 1010.944 878.257 945.69 854.166 890.998 z M 918.708 1483.863 c 1.56 -0.18 3.15 -0.32 4.74 -0.45 c -0.11 -3.09 0.44 -6.16 2.35 -8.66 c 2.78 8.33 5.51 16.69 8.15 25.071 C 926.72 1497.125 930.683 1495.378 918.708 1483.863 z M 936.618 1380.281 c -3.91 2.4 -7.01 5.84 -9.88 9.38 c 7.94 -242.625 7.478 -187.944 4.64 -211.526 c 15.27 8.46 29.491 19.101 46.071 24.991 c 2.43 1.02 5.18 1.41 7.4 2.91 C 977.312 1257.369 953.467 1368.486 936.618 1380.281 z M 1057.601 823.326 c 1.77 2.6 0.02 5.86 -1.88 7.87 c -15.711 17.99 -27.091 39.541 -34.011 62.342 c -19.668 62.626 -4.463 47.055 -40.671 88.502 c 4.011 -13.867 4.533 -14.634 -1.09 -19.121 c 6.228 -8.543 7.3 -36.358 7.5 -46.621 c 0.259 -12.853 -3.46 14.807 20.29 -136.764 c 0.439 -3.054 -2.32 4.889 36.781 -103.023 c 0.94 -2.61 1.82 -5.26 2.95 -7.8 C 1074.451 783.065 1066.595 788.971 1057.601 823.326 z M 1258.067 779.225 c 0.02 -2.11 -0.36 -4.44 1.07 -6.22 c 1.981 15.266 8.988 78.749 9.22 82.062 C 1256.444 828.388 1258.717 829.771 1258.067 779.225 z M 1400.96 1480.023 c 0.63 0.14 1.9 0.42 2.53 0.57 c -0.29 2.69 -1.41 5.2 -2.36 7.71 c -0.23 2.75 -1.17 5.37 -2 7.99 c 0.01 2.42 -0.72 4.79 -1.38 7.11 c 0 0 -0.918 6.52 -1.03 21.561 c 2.826 9.476 -1.777 -0.78 6.16 18.801 c -25.336 -21.931 -24.144 -20.744 -25.461 -22.531 c -4.321 -3.195 -15.233 -13.789 -16.101 -15.19 c -2.07 -1.7 -4.24 -3.4 -5.7 -5.67 c -3.69 -3.27 -7.49 -6.61 -10.46 -10.54 c -28.061 -40.786 -23.912 -37.022 -24.881 -42.961 c -7.689 -58.045 -19.369 -149.546 -21.411 -203.605 c -0.84 -18.76 0.3 -37.601 -1.89 -56.291 c 41.323 -12.274 83.658 -21.781 125.973 -8.06 C 1421.171 1240.807 1421.544 1274.184 1400.96 1480.023 z M 1413.75 1143.895 c 3.3 0.41 6.58 0.95 9.86 1.52 c -0.27 9.57 -0.4 19.14 -0.53 28.721 c -2.736 -2.705 -68.444 -68.097 -70.122 -70.172 c -1.29 -2.092 -18.536 -59.942 -19.611 -63.662 c 14.08 -1.35 28.621 -2.69 41.331 -9.43 c 1.527 -0.799 0.183 1.344 29.721 -39.181 c 3.3 1.05 6.64 2.03 9.86 3.37 c 8.018 -8.421 -1.079 -1.479 12.45 -22.041 c 1.57 -2.36 2.91 -4.88 4.72 -7.09 C 1428.236 1091.563 1427.536 1064.999 1413.75 1143.895 z M 1627.616 1106.154 c -8.006 -27.186 -5.032 -38.172 -9.13 -78.522 c -0.3 -3.21 -0.86 -6.42 -0.65 -9.65 c 1.706 2.046 0.22 -5.762 10.98 82.602 C 1629.086 1102.523 1628.286 1104.374 1627.616 1106.154 z" stroke-linecap="round"/>
</g>
</svg>