<?xml version="1.0" standalone="no"?>
<!DOCTYPE svg PUBLIC "-//W3C//DTD SVG 20010904//EN"
 "http://www.w3.org/TR/2001/REC-SVG-20010904/DTD/svg10.dtd">
<svg version="1.0" xmlns="http://www.w3.org/2000/svg"
 width="1574.000000pt" height="554.000000pt" viewBox="0 0 1574.000000 554.000000"
 preserveAspectRatio="xMidYMid meet">

<g transform="translate(0.000000,554.000000) scale(0.100000,-0.100000)"
fill="#000000" stroke="none">
<path d="M2213 4978 c-49 -54 -74 -151 -46 -179 13 -13 39 30 59 101 l12 45 1
-37 c1 -21 -6 -56 -15 -78 -19 -47 -15 -57 16 -40 39 21 51 99 26 169 -16 44
-27 47 -53 19z"/>
<path d="M2834 4760 c-17 -6 -37 -16 -43 -24 -9 -11 0 -14 54 -20 35 -4 77 -4
92 -1 24 5 25 4 10 -5 -9 -6 -50 -14 -89 -17 l-71 -6 24 -20 c34 -27 107 -19
161 19 23 16 43 34 45 40 8 23 -133 49 -183 34z"/>
<path d="M1592 4625 c-28 -8 -63 -22 -77 -31 -24 -16 -42 -50 -31 -61 9 -9 85
15 134 42 23 13 42 21 42 17 0 -12 -62 -50 -118 -73 -57 -24 -55 -39 6 -39 40
0 78 19 113 57 32 33 61 88 52 97 -10 10 -64 6 -121 -9z"/>
<path d="M1122 4581 c-51 -18 -122 -66 -129 -88 -8 -23 130 -58 192 -48 45 6
105 38 105 56 0 7 -36 10 -115 7 l-116 -3 43 18 c28 12 69 19 116 20 69 0 71
1 56 19 -14 15 -73 39 -94 38 -3 -1 -29 -9 -58 -19z"/>
<path d="M1859 4343 c-42 -47 -65 -142 -40 -158 13 -7 18 3 35 66 14 52 15 52
15 17 1 -20 -4 -49 -9 -64 -14 -35 -7 -41 19 -15 24 24 28 97 8 144 -12 28
-13 28 -28 10z"/>
<path d="M3531 4280 c-45 -19 21 -48 114 -51 40 -1 40 -1 10 -10 -18 -5 -51
-5 -84 1 -30 5 -57 8 -60 5 -3 -3 5 -15 17 -27 17 -17 34 -22 75 -22 52 0 127
28 134 51 11 32 -156 74 -206 53z"/>
<path d="M2642 4239 l-33 -10 21 -29 c41 -58 150 -106 205 -92 l30 8 -40 27
c-22 14 -60 33 -85 43 -25 9 -49 20 -54 25 -17 15 77 -12 126 -37 27 -14 52
-23 54 -21 11 11 -22 60 -50 74 -37 19 -130 26 -174 12z"/>
<path d="M2377 4123 c-15 -14 -6 -139 12 -180 16 -34 45 -63 64 -63 7 0 -15
125 -28 158 -8 17 -11 32 -7 32 12 0 59 -102 67 -144 6 -35 8 -37 22 -24 39
39 1 147 -69 198 -43 31 -50 34 -61 23z"/>
<path d="M1053 3991 c-49 -35 -78 -98 -63 -136 5 -14 12 -25 14 -25 3 0 15 27
27 60 12 33 28 65 36 71 10 9 8 -3 -6 -40 -20 -49 -28 -101 -15 -101 47 0 92
122 68 184 -8 22 -15 20 -61 -13z"/>
<path d="M3494 3935 c-3 -25 -3 -57 1 -72 8 -32 42 -73 62 -73 16 0 17 -4 -12
54 -14 27 -25 58 -25 69 0 10 15 -9 33 -44 17 -34 38 -64 45 -67 21 -7 14 58
-13 103 -20 36 -62 75 -79 75 -3 0 -8 -20 -12 -45z"/>
<path d="M4094 3906 c-53 -23 -47 -33 25 -40 38 -3 88 -14 112 -24 l43 -19
-113 5 c-93 4 -113 2 -109 -9 3 -8 20 -23 39 -34 42 -25 174 -27 228 -4 l34
14 -27 32 c-30 35 -112 78 -166 87 -20 3 -49 -1 -66 -8z"/>
<path d="M661 3763 c-30 -15 -69 -45 -85 -66 -36 -45 -30 -53 52 -63 97 -12
189 12 212 56 10 19 7 20 -53 20 -35 0 -86 -7 -112 -15 -85 -25 -63 -1 26 29
24 8 65 16 91 18 46 3 47 3 29 22 -32 32 -98 32 -160 -1z"/>
<path d="M3504 3316 c10 -85 48 -151 98 -169 15 -5 16 -1 11 26 -3 18 -18 56
-34 86 -16 30 -27 56 -24 59 5 5 82 -112 90 -139 4 -11 11 -17 16 -14 16 11
10 77 -11 110 -22 36 -84 81 -126 91 l-27 7 7 -57z"/>
<path d="M2425 3295 c-22 -8 -46 -22 -53 -32 -11 -16 -10 -18 6 -21 11 -2 45
6 76 16 71 24 59 9 -17 -22 -62 -25 -64 -36 -6 -36 31 0 46 8 80 39 22 22 39
46 37 53 -6 18 -76 20 -123 3z"/>
<path d="M1083 2978 c-22 -10 -38 -36 -29 -46 3 -2 20 2 38 11 18 8 47 18 63
22 21 4 16 -1 -20 -18 -27 -13 -56 -31 -64 -40 -12 -15 -10 -17 18 -17 56 0
153 63 136 89 -8 14 -113 13 -142 -1z"/>
<path d="M9020 2791 c-139 -4 -246 -11 -261 -18 -40 -17 -51 -62 -25 -99 13
-17 28 -19 168 -19 120 0 152 -3 150 -13 -1 -7 -7 -158 -13 -335 -13 -380 -10
-620 8 -638 16 -16 90 -23 98 -9 3 5 8 18 10 28 6 31 16 402 18 678 1 144 6
260 10 257 5 -3 7 3 5 13 -3 18 7 19 150 22 86 1 152 7 152 12 0 5 6 7 14 4
18 -7 28 10 33 52 6 53 -22 64 -163 68 -66 2 -225 0 -354 -3z"/>
<path d="M12961 2790 c-53 -13 -111 -42 -104 -53 3 -6 1 -7 -5 -3 -14 9 -94
-63 -85 -77 3 -6 1 -7 -5 -3 -13 8 -82 -94 -85 -124 -1 -10 -4 -17 -8 -15 -3
3 -19 -33 -34 -78 -24 -73 -28 -99 -31 -237 -4 -176 14 -271 71 -379 18 -35
91 -112 99 -104 3 4 6 1 6 -6 0 -14 77 -50 118 -56 15 -1 46 -6 69 -9 23 -4
44 -3 47 2 3 5 18 8 32 6 30 -3 116 23 125 38 3 5 9 9 13 9 20 -3 26 0 20 11
-5 7 -3 8 5 4 13 -8 138 111 128 121 -3 2 5 20 17 38 13 18 34 66 47 107 21
63 24 92 24 213 0 143 -7 212 -26 247 -6 11 -12 29 -14 40 -3 12 -10 25 -16
28 -6 4 -10 10 -10 14 3 19 0 27 -7 22 -4 -2 -9 4 -9 16 -2 27 -32 70 -43 63
-6 -3 -7 0 -4 8 6 17 -82 95 -141 124 -66 33 -140 46 -194 33z m119 -158 c31
-15 125 -102 111 -102 -3 0 3 -7 14 -16 11 -8 21 -19 21 -24 1 -6 2 -13 3 -17
0 -5 11 -24 23 -43 12 -19 23 -42 24 -50 2 -8 8 -41 15 -73 7 -37 9 -90 5
-150 -9 -121 -8 -117 -18 -117 -4 0 -8 -8 -8 -17 0 -10 -9 -33 -20 -50 -11
-18 -17 -33 -13 -33 4 0 -2 -7 -13 -15 -10 -8 -15 -15 -11 -15 19 0 -65 -69
-116 -94 -51 -25 -64 -28 -124 -22 -93 8 -93 8 -86 19 4 6 -1 8 -11 4 -9 -4
-15 -3 -12 2 3 5 -7 19 -22 32 -30 25 -82 121 -82 150 0 10 -4 20 -9 24 -10 6
-9 296 1 330 4 11 11 32 16 46 6 15 8 30 5 33 -4 3 -2 6 4 6 11 0 37 57 34 73
0 4 4 7 10 7 5 0 7 5 3 12 -4 7 -3 8 4 4 6 -4 16 4 23 16 15 29 35 48 48 48 5
0 17 10 25 22 9 12 16 19 16 15 0 -4 12 -1 28 8 29 16 57 13 112 -13z"/>
<path d="M13894 2780 c-27 -11 -60 -29 -72 -40 -12 -12 -22 -17 -22 -13 0 20
-119 -119 -146 -172 -18 -33 -32 -62 -32 -65 0 -3 -5 -18 -11 -33 -12 -31 -23
-80 -26 -114 -1 -13 -5 -26 -8 -30 -4 -3 -7 -70 -7 -147 0 -105 4 -148 15
-170 8 -15 13 -32 10 -36 -3 -5 0 -21 7 -37 6 -15 12 -30 13 -33 8 -33 18 -49
26 -44 5 3 9 2 8 -3 -4 -24 5 -42 41 -82 22 -24 40 -40 40 -35 0 5 7 -1 15
-13 15 -21 93 -58 103 -49 3 3 12 1 19 -6 19 -15 167 -15 186 0 7 7 16 9 20 6
6 -6 98 32 107 44 3 4 18 15 33 25 15 10 25 22 22 28 -4 5 -1 8 6 7 30 -7 130
180 145 269 10 64 17 252 9 270 -4 10 -8 36 -10 58 -3 47 -37 146 -62 184 -10
14 -18 28 -18 31 -1 18 -52 83 -92 117 -103 86 -228 119 -319 83z m150 -146
c31 -14 56 -30 56 -35 0 -6 5 -7 10 -4 6 4 9 2 8 -4 -5 -16 62 -82 75 -74 7 4
6 -1 -2 -10 -9 -11 -10 -17 -2 -17 6 0 11 -6 11 -14 0 -8 7 -22 16 -30 8 -9
13 -16 9 -16 -3 0 2 -15 11 -32 10 -18 19 -44 20 -58 2 -14 5 -38 8 -55 7 -44
8 -146 2 -176 -3 -14 -12 -44 -20 -67 -8 -22 -12 -43 -9 -46 4 -3 1 -6 -6 -6
-8 0 -11 -6 -7 -16 3 -8 2 -12 -3 -9 -5 3 -13 -5 -17 -17 -3 -12 -17 -33 -30
-47 -13 -14 -22 -32 -19 -39 3 -7 0 -10 -5 -7 -14 9 -52 -14 -44 -27 4 -6 3
-8 -3 -5 -6 4 -27 -3 -49 -13 -46 -24 -129 -26 -179 -6 -18 8 -37 11 -41 8 -4
-4 -4 -2 0 5 7 12 -27 37 -37 27 -3 -3 -8 0 -13 7 -4 8 -3 10 4 5 7 -4 12 -3
12 2 0 12 -25 34 -31 27 -3 -2 -6 5 -6 17 -1 12 -8 25 -15 29 -7 5 -9 9 -4 9
5 0 3 7 -5 16 -7 8 -13 25 -15 37 -1 12 -5 49 -9 82 -9 86 -11 235 -2 235 4 0
7 8 7 19 0 24 37 141 50 156 5 7 6 16 2 20 -4 5 -2 5 4 2 11 -6 51 51 46 66
-1 5 2 6 7 3 5 -4 16 2 23 12 7 10 21 21 31 25 11 4 15 12 11 18 -4 7 -3 9 3
6 6 -4 26 0 44 8 44 18 38 19 103 -11z"/>
<path d="M15150 2790 c0 -6 -4 -9 -9 -6 -12 8 -33 -19 -23 -29 4 -5 1 -5 -6
-1 -15 9 -65 -32 -56 -46 3 -5 0 -7 -8 -6 -7 2 -12 -3 -10 -9 1 -7 -2 -12 -7
-10 -14 4 -72 -43 -66 -54 4 -5 2 -8 -3 -7 -5 2 -21 -10 -36 -25 -14 -15 -26
-26 -26 -23 0 3 -11 -4 -25 -16 -13 -11 -22 -26 -18 -31 3 -6 2 -7 -4 -4 -6 4
-43 -23 -84 -58 -41 -36 -77 -65 -81 -65 -5 0 -8 64 -9 143 -1 132 -2 158 -11
197 -7 30 -18 37 -55 36 -29 -1 -38 -5 -37 -18 1 -10 -3 -16 -9 -15 -21 4 -27
-144 -22 -488 6 -401 14 -569 26 -573 5 -2 9 -10 9 -18 0 -8 7 -15 15 -15 8
-1 21 -2 28 -3 15 -3 49 13 60 28 4 6 7 103 5 215 -2 157 0 205 10 208 6 3 12
0 12 -7 0 -6 4 -9 9 -5 5 3 13 -4 16 -16 4 -13 12 -18 21 -15 8 3 12 1 9 -4
-7 -11 172 -196 187 -192 5 1 7 -1 4 -6 -7 -12 98 -114 109 -105 4 5 5 3 2 -3
-9 -15 87 -104 111 -104 27 0 67 38 69 65 2 24 -27 58 -199 238 -38 39 -68 72
-68 73 0 11 -75 82 -82 78 -5 -3 -7 -1 -6 3 4 12 -84 99 -95 95 -5 -1 -6 2 -3
6 3 5 -3 17 -14 27 -24 22 -25 38 -5 55 12 10 13 16 4 27 -9 11 -9 12 4 7 18
-6 79 35 71 48 -3 5 -1 7 5 6 9 -3 83 58 162 135 22 20 43 37 47 37 5 0 27 19
50 43 22 23 59 59 81 79 47 42 54 83 20 114 -23 21 -69 30 -69 14z"/>
<path d="M6633 2763 c-24 -2 -43 -9 -43 -14 0 -6 -5 -7 -10 -4 -12 7 -79 -15
-81 -27 -2 -11 -5 -21 -12 -38 -3 -8 -8 -157 -12 -330 -3 -173 -8 -395 -11
-493 -4 -129 -2 -183 7 -193 14 -18 69 -18 93 -1 20 15 37 131 35 237 -2 65 6
110 19 110 4 -1 36 -23 71 -50 36 -27 68 -47 72 -44 4 2 11 -1 15 -7 5 -8 3
-9 -7 -4 -20 12 -9 1 35 -34 21 -17 43 -28 50 -24 6 3 8 3 4 -2 -13 -14 13
-37 27 -25 10 8 15 8 21 -1 4 -8 3 -9 -4 -5 -7 4 -12 4 -12 -1 0 -4 21 -24 46
-43 25 -19 60 -47 77 -61 63 -50 97 -70 108 -63 8 4 9 3 5 -4 -5 -8 3 -12 24
-12 25 0 33 6 44 31 7 17 11 42 8 55 -5 28 -86 99 -101 89 -6 -3 -9 0 -6 7 3
11 -81 84 -142 123 -9 6 -32 25 -52 43 -20 17 -41 30 -48 27 -7 -2 -15 1 -19
7 -5 7 -2 8 7 3 8 -4 -4 8 -26 28 -22 19 -43 33 -47 31 -3 -2 -9 -1 -12 4 -3
5 0 9 7 10 33 2 145 34 168 47 14 8 29 12 32 9 11 -11 123 58 163 101 43 47
57 86 62 179 3 51 1 87 -4 83 -5 -3 -9 8 -10 23 -1 35 -61 139 -89 154 -11 6
-22 14 -25 18 -8 10 -100 48 -100 41 0 -3 -6 -1 -12 4 -7 6 -20 11 -28 13 -31
4 -247 7 -287 3z m290 -149 c50 -19 113 -83 122 -125 4 -16 10 -27 15 -24 4 3
4 -12 -1 -32 -4 -21 -6 -39 -4 -41 2 -2 -5 -13 -15 -25 -16 -16 -17 -24 -8
-36 10 -13 10 -14 -1 -4 -11 9 -21 6 -50 -17 -58 -46 -135 -71 -236 -77 -49
-2 -101 -8 -115 -12 l-25 -8 3 201 c2 110 4 202 6 203 1 2 27 7 57 12 70 13
198 5 252 -15z m252 -972 c-3 -3 -11 0 -18 7 -9 10 -8 11 6 5 10 -3 15 -9 12
-12z"/>
<path d="M9641 2761 c-12 -8 -14 -99 -14 -556 1 -590 -2 -565 53 -565 23 1 76
30 54 30 -5 0 -3 4 4 8 20 14 27 126 27 467 0 329 -8 546 -22 568 -4 6 -8 19
-8 27 0 22 -68 37 -94 21z"/>
<path d="M12340 2757 l-25 -13 -7 -339 c-4 -187 -9 -348 -10 -360 -3 -16 -10
-9 -32 30 -119 204 -162 272 -182 288 -13 10 -21 24 -18 31 3 7 -7 29 -21 50
-14 20 -25 39 -25 42 0 10 -55 90 -74 107 -12 10 -14 15 -6 11 12 -6 13 -5 5
7 -6 8 -24 34 -40 59 -40 60 -48 67 -64 62 -8 -3 -11 0 -7 6 4 6 -6 9 -25 8
-63 -4 -62 7 -55 -501 6 -484 10 -550 29 -574 9 -12 9 -13 0 -7 -8 4 -11 2 -8
-7 5 -11 54 -16 93 -9 14 3 15 16 18 385 2 196 6 357 9 357 3 0 12 0 20 0 8 0
14 -3 13 -7 -3 -8 70 -137 106 -188 12 -16 21 -34 21 -38 0 -4 6 -11 13 -16 8
-5 13 -11 13 -15 -3 -17 0 -26 12 -38 7 -7 21 -32 31 -55 10 -23 22 -41 26
-38 4 2 7 -1 7 -8 0 -7 22 -52 48 -100 36 -65 53 -86 65 -82 11 5 12 3 3 -6
-12 -12 -9 -17 48 -113 12 -22 25 -34 27 -27 3 9 7 9 18 0 11 -9 18 -9 29 1 8
7 15 9 15 5 0 -4 7 -2 15 5 14 11 15 75 13 529 -2 284 -5 523 -8 531 -5 16
-38 39 -55 39 -5 1 -21 -5 -35 -12z m-380 -183 c0 -8 -19 -13 -24 -6 -3 5 1 9
9 9 8 0 15 -2 15 -3z"/>
<path d="M7360 2750 c-8 -5 -11 -12 -7 -16 4 -4 1 -14 -6 -22 -9 -11 -11 -120
-10 -462 1 -437 6 -577 22 -593 4 -4 160 -7 345 -5 l338 3 19 24 c21 26 19 65
-6 90 -14 14 -55 16 -302 16 l-286 0 2 175 c1 96 4 185 7 198 14 71 15 73 32
68 34 -10 337 -10 353 -1 24 15 39 49 34 76 -8 42 -32 50 -145 49 -58 -1 -113
1 -122 5 -9 4 -46 5 -82 3 -35 -1 -62 0 -59 5 2 4 -1 7 -6 7 -7 0 -11 45 -11
129 l0 128 254 -4 c285 -4 288 -3 281 63 -4 46 -25 60 -104 68 -103 9 -524 7
-541 -4z"/>
<path d="M8461 2734 c-12 -15 -19 -35 -16 -43 3 -8 3 -12 -2 -8 -9 9 -55 -153
-48 -170 2 -7 0 -13 -5 -13 -6 0 -9 -3 -8 -7 1 -5 -7 -37 -19 -73 -11 -36 -25
-81 -29 -100 -10 -45 -9 -40 -22 -72 -6 -15 -9 -35 -5 -45 4 -11 3 -14 -5 -9
-8 5 -12 0 -13 -13 -2 -23 -3 -29 -12 -51 -10 -25 -57 -181 -62 -204 -2 -11
-5 -23 -6 -26 -1 -3 -3 -9 -4 -15 -1 -5 -7 -23 -14 -39 -6 -16 -10 -31 -7 -33
2 -3 -3 -21 -11 -41 -32 -77 -10 -142 47 -138 47 3 83 50 85 111 0 6 3 12 6
15 6 6 71 257 73 282 0 9 4 15 7 12 4 -2 10 0 13 5 8 13 227 3 243 -11 7 -6
13 -17 13 -24 0 -8 4 -14 10 -14 5 0 6 -7 3 -17 -5 -12 -3 -14 7 -8 8 5 11 4
7 -2 -7 -11 64 -236 91 -288 19 -39 41 -54 73 -55 43 0 63 31 54 85 -9 62 -49
167 -60 158 -4 -5 -5 -3 -2 4 9 15 -87 305 -98 296 -4 -5 -5 -3 -2 3 8 13 -26
118 -34 109 -3 -3 -6 7 -7 22 0 16 -17 75 -37 133 -21 58 -43 129 -51 159 -8
30 -22 61 -32 68 -9 8 -11 12 -4 8 19 -10 14 12 -10 39 -13 15 -37 29 -54 32
-26 5 -35 1 -53 -22z m76 -344 c2 -13 9 -28 16 -32 6 -4 8 -8 3 -8 -5 0 -3 -6
3 -13 6 -8 8 -17 4 -20 -3 -4 0 -14 7 -23 8 -8 15 -33 17 -54 l4 -38 -52 -4
c-68 -4 -92 12 -84 55 4 18 7 39 9 47 1 8 8 25 14 38 7 12 10 27 7 32 -3 6 -1
10 5 10 7 0 10 6 7 14 -6 14 9 26 27 22 5 -1 11 -13 13 -26z m210 -545 c0 -8
-4 -12 -9 -9 -5 3 -6 10 -3 15 9 13 12 11 12 -6z"/>
<path d="M10723 2747 c-5 -7 -11 -25 -14 -42 -7 -54 -4 -959 4 -1008 l8 -47
332 0 c241 1 339 4 357 13 30 15 39 71 16 102 -14 19 -26 20 -298 20 l-283 0
-1 221 -1 221 41 -3 c23 -2 107 -5 188 -8 l148 -5 20 27 c30 37 24 94 -10 104
-14 4 -106 11 -205 15 l-180 8 -5 118 c-3 65 -1 125 3 132 6 12 47 13 236 8
125 -3 239 -3 254 1 38 9 51 39 36 81 -8 21 -20 36 -31 37 -10 1 -33 4 -50 6
-18 3 -151 6 -295 8 -193 2 -264 0 -270 -9z"/>
<path d="M10505 2740 c-4 -6 -10 -8 -14 -5 -5 2 -16 -21 -26 -53 -10 -31 -26
-85 -37 -120 -11 -35 -17 -66 -14 -69 3 -3 2 -11 -3 -17 -14 -17 -41 -117 -35
-127 3 -5 0 -9 -6 -9 -7 0 -10 -6 -7 -12 2 -7 -2 -28 -10 -45 -7 -18 -10 -33
-6 -33 4 0 2 -5 -4 -11 -6 -6 -9 -18 -6 -25 3 -8 -1 -14 -8 -14 -7 0 -10 -3
-6 -6 3 -3 1 -18 -5 -33 -24 -58 -56 -185 -51 -200 4 -13 3 -13 -5 -2 -7 10
-11 6 -17 -20 -9 -46 -28 -99 -35 -99 -13 0 -34 50 -56 133 -1 4 -2 21 -3 38
0 16 -4 28 -8 26 -5 -3 -8 9 -7 26 0 17 -3 49 -8 72 -5 22 -11 51 -13 66 -2
14 -18 99 -35 190 -18 90 -34 175 -36 188 -11 54 -32 140 -38 150 -7 10 -34
12 -73 5 -23 -4 -42 -46 -37 -79 2 -11 5 -35 6 -52 0 -18 4 -33 8 -33 4 0 6
-9 5 -21 -1 -12 5 -51 12 -88 7 -36 15 -75 17 -86 14 -83 18 -102 23 -115 3
-8 7 -28 9 -44 2 -16 9 -34 14 -41 5 -7 8 -14 5 -17 -8 -8 17 -118 27 -118 5
0 7 -4 3 -10 -3 -5 6 -55 20 -112 36 -141 45 -169 55 -163 4 3 6 -4 3 -15 -3
-12 0 -20 6 -20 7 0 10 -4 7 -9 -8 -12 29 -43 39 -34 4 5 5 2 1 -5 -15 -25 56
-37 106 -17 21 8 51 53 43 65 -3 5 0 12 6 16 8 5 10 2 5 -7 -4 -8 -1 -6 8 4
21 26 134 387 138 444 2 13 5 23 9 23 6 0 22 67 24 101 0 9 6 23 11 30 11 14
23 55 28 95 1 11 5 24 8 30 12 20 40 142 45 199 3 44 1 64 -9 72 -20 16 -66
24 -73 13z"/>
<path d="M5920 2726 c-25 -6 -44 -16 -43 -22 1 -6 -8 -9 -21 -7 -13 3 -27 -1
-31 -8 -6 -8 -4 -10 5 -4 8 5 11 4 6 -3 -4 -6 -12 -9 -19 -6 -18 6 -90 -73
-81 -89 4 -6 4 -9 -1 -5 -7 7 -55 -52 -55 -67 0 -3 -9 -26 -21 -51 -11 -25
-21 -60 -23 -78 -2 -18 -6 -38 -10 -45 -10 -15 -5 -261 6 -324 12 -65 67 -189
81 -180 6 3 7 1 3 -5 -8 -13 87 -116 97 -105 4 3 7 1 7 -6 0 -7 26 -24 58 -38
47 -22 72 -26 147 -27 50 0 104 3 120 7 54 14 120 48 140 70 11 13 16 16 10 7
-6 -9 -1 -8 15 5 54 45 62 54 55 66 -5 8 -4 10 3 5 20 -12 7 65 -13 80 -25 18
-59 18 -75 -1 -7 -8 -18 -15 -25 -15 -13 0 -30 -28 -26 -44 1 -5 -5 -4 -13 4
-15 11 -20 7 -17 -13 1 -5 -2 -6 -7 -3 -9 6 -62 -15 -62 -24 0 -3 -31 -6 -70
-8 -78 -4 -138 17 -179 62 -14 14 -31 26 -38 26 -8 0 -12 4 -8 9 3 5 -8 33
-25 61 -16 28 -30 57 -30 65 0 8 -4 15 -8 15 -4 0 -9 19 -11 43 -1 23 -6 44
-12 45 -5 2 -7 7 -5 11 3 4 6 43 7 86 1 44 9 104 16 134 8 29 12 60 9 68 -3 8
-2 12 2 9 5 -3 17 9 27 27 22 39 87 110 106 117 8 2 51 6 95 8 67 3 95 -1 158
-22 43 -15 82 -23 88 -20 7 4 8 2 4 -4 -4 -7 -1 -12 8 -12 23 0 66 22 68 34 5
37 1 63 -14 78 -24 24 -77 50 -88 43 -6 -3 -10 -2 -10 4 0 16 -94 44 -152 45
-21 1 -38 4 -38 9 0 10 -58 7 -110 -7z"/>
<path d="M615 2661 c-17 -4 -39 -12 -49 -18 -43 -24 121 -112 180 -97 13 3 24
10 24 15 0 12 -52 37 -112 53 -44 12 -48 15 -21 15 17 1 58 -7 91 -18 l60 -18
-7 21 c-14 38 -102 63 -166 47z"/>
<path d="M3269 2595 c-15 -8 -34 -31 -44 -51 -20 -42 -32 -148 -18 -157 13 -8
82 25 120 57 39 33 72 111 54 129 -10 9 -26 -3 -77 -56 -35 -37 -64 -65 -64
-62 0 18 38 76 73 113 l41 42 -29 0 c-17 -1 -42 -7 -56 -15z"/>
<path d="M3702 2511 c-20 -12 6 -29 90 -57 71 -24 71 -25 25 -19 -27 2 -69 14
-93 24 -49 22 -49 22 -33 -13 15 -32 56 -48 119 -48 51 0 110 17 110 33 0 12
-61 56 -103 74 -40 16 -94 20 -115 6z"/>
<path d="M3539 1916 c-41 -21 -579 -457 -590 -477 -6 -13 -6 -25 1 -39 8 -15
23 -20 72 -22 60 -3 62 -4 72 -36 7 -19 15 -30 21 -25 5 4 5 1 -1 -7 -6 -8 -9
-24 -8 -35 1 -11 5 -56 9 -100 3 -44 8 -87 11 -95 3 -8 7 -49 10 -90 2 -41 8
-97 12 -125 6 -44 10 -50 32 -51 14 -1 61 -5 105 -8 57 -5 76 -4 65 3 -9 6
-10 11 -3 11 6 0 18 -6 26 -14 8 -9 47 -17 98 -21 192 -15 217 -18 242 -29 9
-5 28 -5 42 -2 14 4 25 3 25 -2 0 -5 15 -9 34 -10 18 -1 53 -6 77 -11 24 -6
58 -11 76 -11 29 0 33 4 37 32 12 81 13 128 2 128 -7 0 -6 4 2 9 8 4 13 17 11
27 -1 11 1 26 4 34 3 8 8 48 11 88 3 52 1 72 -7 72 -8 0 -7 4 2 9 8 5 16 20
18 33 8 51 20 184 19 208 -2 25 -1 25 64 22 51 -3 69 0 79 12 25 30 3 60 -105
144 l-106 84 7 66 c3 37 8 87 10 112 2 25 11 50 20 56 8 6 15 14 15 16 0 3
-43 6 -95 7 -86 2 -120 -7 -81 -22 7 -3 17 -22 20 -41 4 -20 11 -34 15 -32 4
3 8 -1 8 -9 0 -8 -4 -12 -9 -9 -4 3 -8 -2 -8 -11 0 -9 4 -14 8 -11 5 3 9 -1 9
-9 0 -8 -4 -12 -8 -9 -4 2 -9 -1 -11 -8 -3 -7 -58 32 -129 89 -164 133 -175
138 -230 109z m372 -69 c-10 -9 -11 -8 -5 6 3 10 9 15 12 12 3 -3 0 -11 -7
-18z m24 -17 c3 -5 -1 -10 -10 -10 -9 0 -13 5 -10 10 3 6 8 10 10 10 2 0 7 -4
10 -10z m61 -16 c-24 -17 -39 -18 -33 -1 2 6 12 11 21 11 9 -1 16 3 16 9 0 6
3 7 7 3 5 -4 -1 -14 -11 -22z m-400 -46 c4 -7 3 -8 -4 -4 -7 4 -17 4 -23 0 -8
-4 -7 -9 2 -15 10 -6 7 -8 -8 -6 -21 1 -21 2 -6 19 19 21 29 23 39 6z m384
-28 c0 -11 -4 -20 -9 -20 -11 0 -22 26 -14 34 12 12 23 5 23 -14z m-350 -5 c4
3 14 -3 21 -12 12 -15 12 -16 -1 -8 -8 6 -19 10 -24 10 -5 0 -10 6 -12 13 -1
7 0 8 3 2 2 -5 8 -8 13 -5z m-123 -23 c-13 -14 -14 -21 -5 -30 14 -14 20 -44
7 -37 -10 7 -53 -14 -45 -22 3 -3 12 -1 19 6 11 9 17 8 27 -4 7 -9 10 -19 6
-22 -4 -4 -11 -2 -15 5 -4 7 -14 10 -23 7 -8 -3 -21 2 -29 11 -8 10 -9 15 -2
11 12 -7 26 7 29 31 2 7 -3 11 -9 9 -7 -3 -11 -9 -10 -14 1 -5 -5 -10 -14 -10
-10 0 1 15 28 38 48 42 62 50 36 21z m194 -29 c13 -16 12 -17 -3 -4 -17 13
-22 21 -14 21 2 0 10 -8 17 -17z m2 -59 c-7 -19 -22 -8 -20 16 1 14 5 16 13 9
7 -6 10 -17 7 -25z m52 16 c10 -11 16 -20 13 -20 -3 0 -13 9 -23 20 -10 11
-16 20 -13 20 3 0 13 -9 23 -20z m-345 -3 c0 -2 -10 -12 -22 -23 l-23 -19 19
23 c18 21 26 27 26 19z m394 -36 c14 -15 15 -21 4 -27 -7 -4 -10 -3 -5 1 4 5
0 17 -10 27 -9 10 -14 18 -11 18 3 0 13 -9 22 -19z m-385 -11 c-9 -6 -8 -12 4
-25 21 -21 21 -20 -5 -22 -15 -2 -18 1 -10 6 18 11 -12 36 -30 25 -7 -4 -5 2
5 14 11 11 25 18 34 15 11 -4 12 -8 2 -13z m351 2 c0 -14 -36 -52 -49 -52 -22
0 -6 35 17 38 12 2 22 8 22 13 0 5 2 9 5 9 3 0 5 -4 5 -8z m-420 -6 c0 -2 -8
-10 -17 -17 -16 -13 -17 -12 -4 4 13 16 21 21 21 13z m135 -16 c3 -5 -1 -10
-9 -10 -9 0 -16 5 -16 10 0 6 4 10 9 10 6 0 13 -4 16 -10z m301 -9 c-4 -5 0
-11 6 -14 7 -3 3 -4 -9 -4 -17 1 -19 4 -11 14 12 15 22 18 14 4z m79 -11 c10
-11 16 -20 13 -20 -3 0 -13 9 -23 20 -10 11 -16 20 -13 20 3 0 13 -9 23 -20z
m-565 -8 c0 -4 -10 -13 -22 -21 -23 -14 -23 -14 -4 8 20 22 26 25 26 13z m25
-31 c-3 -6 -11 -11 -17 -11 -6 0 -6 6 2 15 14 17 26 13 15 -4z m596 -8 c13
-15 17 -22 8 -15 -9 6 -20 8 -25 4 -5 -4 -6 -3 -2 2 4 5 3 15 -3 23 -21 25 -3
13 22 -14z m-57 9 c3 -5 -1 -9 -9 -9 -8 0 -12 4 -9 9 3 4 7 8 9 8 2 0 6 -4 9
-8z m-619 -22 c4 -6 1 -9 -7 -8 -7 2 -12 -3 -10 -10 1 -8 -2 -11 -8 -7 -8 5
-7 11 1 21 14 17 16 17 24 4z m30 0 c-3 -5 2 -10 11 -10 10 0 15 -3 11 -6 -10
-10 -39 5 -32 16 3 5 8 10 11 10 3 0 2 -4 -1 -10z m75 0 c0 -5 -2 -10 -4 -10
-2 0 -12 -3 -22 -7 -16 -6 -17 -5 -4 10 17 19 30 22 30 7z m520 -16 c-14 -7
-19 -13 -12 -14 17 0 15 -20 -3 -20 -9 0 -14 8 -13 23 1 16 9 22 27 24 l26 1
-25 -14z m63 -27 c-4 -6 0 -8 9 -4 9 3 21 0 27 -6 15 -15 14 2 -1 23 -7 9 -3
5 10 -8 20 -21 21 -27 9 -45 -8 -13 -25 -21 -45 -22 -25 -1 -29 1 -21 12 8 9
17 10 29 3 17 -9 30 -4 30 12 0 5 -4 6 -10 3 -5 -3 -10 2 -10 12 0 15 -2 16
-10 3 -10 -15 -20 -10 -24 12 -1 7 -6 20 -11 28 -8 13 -7 13 8 1 9 -7 14 -18
10 -24z m-33 2 c0 -5 -4 -9 -10 -9 -5 0 -10 7 -10 16 0 8 5 12 10 9 6 -3 10
-10 10 -16z m-718 -6 c-10 -4 -10 -8 -1 -20 10 -11 10 -14 -2 -11 -9 2 -13 -4
-11 -17 2 -16 1 -17 -7 -5 -8 12 -13 12 -30 -4 -11 -10 -18 -24 -14 -30 3 -6
2 -7 -2 -3 -14 12 -14 36 -2 44 12 8 18 10 39 12 6 0 8 4 5 8 -9 8 12 33 27
32 6 0 6 -3 -2 -6z m98 -8 c10 -12 10 -15 -4 -15 -9 0 -16 7 -16 15 0 8 2 15
4 15 2 0 9 -7 16 -15z m80 -10 c0 -2 -9 -9 -20 -15 -12 -6 -20 -7 -20 -1 0 5
8 12 18 14 9 3 18 5 20 6 1 0 2 -1 2 -4z m675 -15 c10 -11 16 -20 13 -20 -3 0
-13 9 -23 20 -10 11 -16 20 -13 20 3 0 13 -9 23 -20z m-125 0 c0 -5 -7 -10
-15 -10 -8 0 -15 5 -15 10 0 6 7 10 15 10 8 0 15 -4 15 -10z m-680 -20 c0 -5
-4 -10 -9 -10 -6 0 -13 5 -16 10 -3 6 1 10 9 10 9 0 16 -4 16 -10z m795 1 c3
-5 2 -12 -3 -15 -5 -3 -9 1 -9 9 0 17 3 19 12 6z m-395 -27 c0 -18 -14 -18
-29 0 -9 11 -9 15 1 19 17 6 28 -1 28 -19z m-95 -8 c10 4 12 -1 8 -18 -3 -13
-1 -18 4 -12 9 12 53 37 53 30 0 -2 -6 -11 -14 -19 -12 -12 -9 -14 21 -15 39
-2 123 -40 130 -59 3 -7 9 -10 14 -7 5 3 9 -4 9 -15 0 -12 5 -21 12 -21 6 0 9
-3 5 -6 -3 -3 1 -23 8 -44 8 -22 10 -40 5 -42 -5 -2 -52 -2 -105 0 l-95 3 0
90 c0 57 -4 89 -11 89 -7 0 -10 -30 -7 -91 l3 -91 -104 0 c-56 1 -106 3 -109
6 -3 3 0 6 6 6 7 0 12 5 12 11 0 5 -4 8 -8 5 -5 -3 -9 1 -9 9 0 8 7 17 16 20
14 6 13 8 -3 21 -11 8 -15 14 -10 14 5 0 10 9 10 20 0 11 -4 20 -9 20 -15 0
-3 33 13 35 17 3 25 -31 9 -40 -5 -4 -9 -11 -9 -16 0 -6 6 -7 13 -3 8 5 8 2
-2 -9 -9 -11 -10 -17 -2 -17 6 0 11 5 11 10 0 6 11 22 25 35 13 14 20 25 14
25 -6 0 -7 4 -4 10 3 6 -1 7 -12 4 -16 -5 -16 -4 1 6 14 9 20 10 26 1 5 -9 14
-9 36 1 40 17 46 30 23 46 -11 7 -16 18 -13 24 4 7 10 5 16 -5 5 -9 15 -14 23
-11z m45 13 c0 -15 -18 -19 -23 -6 -3 8 1 14 9 14 8 0 14 -4 14 -8z m-136 -20
c-3 -5 0 -9 7 -9 7 0 10 -2 8 -5 -9 -9 -49 8 -49 20 0 8 8 11 20 8 11 -3 17
-9 14 -14z m297 -5 c10 -13 10 -19 0 -36 -11 -18 -11 -20 4 -15 9 4 14 3 10
-3 -3 -6 0 -10 9 -10 8 0 16 6 18 12 3 9 9 8 21 -4 22 -22 21 -38 -1 -38 -27
0 -108 60 -93 69 6 4 9 15 5 24 -8 21 9 22 27 1z m76 1 c3 -9 3 -18 1 -21 -9
-9 -38 8 -38 22 0 19 29 18 37 -1z m210 2 c13 16 14 16 9 1 -3 -10 2 -19 12
-22 9 -2 4 -4 -13 -3 -18 1 -30 8 -31 17 -1 10 0 11 3 2 4 -10 9 -9 20 5z
m-532 -27 c-28 -12 -37 -12 -30 0 3 6 16 10 28 9 21 0 21 -1 2 -9z m555 -55
c0 -25 -4 -45 -10 -45 -5 0 -10 7 -10 15 0 8 -4 15 -10 15 -5 0 -10 5 -10 10
0 6 7 10 15 10 8 0 15 9 15 20 0 11 2 20 5 20 3 0 5 -20 5 -45z m-909 -12 c-4
-28 -6 -32 -9 -15 -3 22 3 52 11 52 1 0 1 -17 -2 -37z m289 23 c0 -3 -4 -8
-10 -11 -5 -3 -10 -1 -10 4 0 6 5 11 10 11 6 0 10 -2 10 -4z m-252 -93 c-1
-32 -3 -34 -11 -16 -5 12 -7 29 -4 37 10 27 16 18 15 -21z m852 17 c7 -14 7
-20 0 -20 -5 0 -10 7 -10 16 0 9 -5 12 -12 8 -7 -4 -8 -3 -4 4 10 16 14 15 26
-8z m-204 -22 c-11 -15 -16 -18 -16 -7 0 16 21 42 28 34 2 -2 -3 -14 -12 -27z
m4 -33 c-8 -10 -9 -15 -1 -15 6 0 11 -4 11 -10 0 -5 -9 -10 -21 -10 -20 0 -20
1 -3 30 10 16 20 27 22 25 3 -3 -1 -11 -8 -20z m205 15 c3 -5 -1 -10 -10 -10
-9 0 -13 5 -10 10 3 6 8 10 10 10 2 0 7 -4 10 -10z m-838 -48 c0 -13 0 -22 -1
-20 0 2 -9 12 -18 23 -16 20 -16 21 0 21 11 0 18 -9 19 -24z m375 -99 c2 -52
1 -98 -2 -102 -3 -3 -53 -6 -112 -6 -58 0 -103 2 -99 5 9 7 7 101 -3 124 -6
12 -5 21 4 26 7 4 10 15 7 24 -4 9 -2 16 4 16 6 0 8 3 6 8 -3 4 39 6 93 4 l99
-3 3 -96z m219 76 c0 -10 0 -54 1 -96 l0 -78 -103 -5 -104 -5 0 105 0 105 103
-3 c93 -3 102 -5 103 -23z m-627 -73 c-4 -32 -3 -38 6 -26 10 12 11 12 5 -5
-17 -46 -18 -58 -7 -51 8 5 11 -5 9 -34 -5 -92 -23 -14 -27 115 -1 33 -4 64
-8 70 -4 6 1 2 10 -8 14 -14 16 -29 12 -61z m13 62 c-3 -8 -6 -5 -6 6 -1 11 2
17 5 13 3 -3 4 -12 1 -19z m660 16 c-3 -3 -12 -4 -19 -1 -8 3 -5 6 6 6 11 1
17 -2 13 -5z m-646 -41 c-12 -20 -14 -14 -5 12 4 9 9 14 11 11 3 -2 0 -13 -6
-23z m646 7 c1 -12 -4 -20 -14 -20 -9 0 -13 6 -10 14 3 8 1 17 -6 20 -7 2 -3
5 8 5 14 1 21 -6 22 -19z m174 -13 c-10 -9 -11 -8 -5 6 3 10 9 15 12 12 3 -3
0 -11 -7 -18z m2 -52 c-7 -21 -12 -19 -10 4 0 11 5 18 9 15 4 -3 5 -11 1 -19z
m-180 -29 c-3 -4 -9 -2 -14 5 -13 22 -11 31 5 17 8 -7 12 -17 9 -22z m-3 -41
c11 -13 10 -14 -4 -9 -9 3 -16 10 -16 15 0 13 6 11 20 -6z m-562 -32 c-10 -2
-28 -2 -40 0 -13 2 -5 4 17 4 22 1 32 -1 23 -4z m129 -19 c-3 -3 -12 -4 -19
-1 -8 3 -5 6 6 6 11 1 17 -2 13 -5z m283 -24 c0 -5 -16 -10 -36 -10 -21 0 -33
4 -29 10 3 6 19 10 36 10 16 0 29 -4 29 -10z m120 -9 c0 -11 -64 -13 -91 -3
-19 7 -12 9 34 10 31 0 57 -3 57 -7z m-542 -8 c-10 -2 -28 -2 -40 0 -13 2 -5
4 17 4 22 1 32 -1 23 -4z m307 -3 c-3 -5 -12 -10 -20 -10 -8 0 -17 5 -20 10
-4 6 5 10 20 10 15 0 24 -4 20 -10z m265 -15 c0 -8 -4 -15 -10 -15 -5 0 -10 7
-10 15 0 8 5 15 10 15 6 0 10 -7 10 -15z m-330 -15 c0 -5 -4 -10 -10 -10 -5 0
-10 5 -10 10 0 6 5 10 10 10 6 0 10 -4 10 -10z m157 4 c-3 -3 -12 -4 -19 -1
-8 3 -5 6 6 6 11 1 17 -2 13 -5z m70 0 c-3 -3 -12 -4 -19 -1 -8 3 -5 6 6 6 11
1 17 -2 13 -5z m38 -14 c3 -5 2 -10 -4 -10 -5 0 -13 5 -16 10 -3 6 -2 10 4 10
5 0 13 -4 16 -10z m-58 -6 c-3 -3 -12 -4 -19 -1 -8 3 -5 6 6 6 11 1 17 -2 13
-5z m44 -22 c-7 -2 -18 1 -23 6 -8 8 -4 9 13 5 13 -4 18 -8 10 -11z"/>
<path d="M3483 1677 c0 -8 6 -14 14 -14 9 0 10 4 2 14 -6 7 -12 13 -14 13 -1
0 -2 -6 -2 -13z"/>
<path d="M3370 1281 c0 -6 4 -13 10 -16 6 -3 7 1 4 9 -7 18 -14 21 -14 7z"/>
<path d="M7084 1452 c-8 -5 -14 -84 -19 -236 -6 -188 -5 -230 6 -237 8 -5 75
-9 150 -9 105 0 138 3 142 13 10 28 -11 34 -121 39 -62 3 -116 8 -119 12 -4 4
-6 92 -4 196 3 218 -1 245 -35 222z"/>
<path d="M8356 1448 c-3 -7 -6 -115 -8 -240 -3 -185 -1 -228 10 -233 24 -9
281 -5 286 4 4 5 3 16 0 25 -5 13 -22 16 -79 16 -40 0 -93 3 -118 6 l-47 7 -2
211 c-3 192 -5 211 -21 214 -9 2 -19 -2 -21 -10z"/>
<path d="M11660 1448 c-84 -23 -140 -113 -139 -223 0 -122 41 -195 135 -241
49 -24 61 -26 102 -18 56 11 86 48 96 120 3 26 13 56 22 65 32 35 11 50 -63
47 -60 -3 -68 -5 -68 -23 0 -12 8 -21 20 -23 32 -6 38 -18 31 -57 -16 -84 -81
-99 -150 -35 -56 52 -76 94 -76 162 1 133 124 221 214 153 40 -31 66 -32 66
-5 0 28 -41 64 -88 78 -45 14 -54 14 -102 0z"/>
<path d="M14038 1452 c-43 -2 -79 -7 -79 -12 -6 -33 -2 -35 61 -40 l65 -5 0
-207 c0 -113 3 -209 7 -213 4 -4 14 -5 23 -2 11 5 15 23 16 69 1 35 4 128 8
208 l6 145 40 3 c82 5 105 12 105 32 0 14 -7 20 -22 21 -52 3 -158 4 -230 1z"/>
<path d="M6665 1445 c-5 -2 -26 -6 -46 -9 l-36 -6 -7 -222 c-4 -127 -4 -224 2
-230 5 -5 16 -6 25 -2 13 5 17 19 17 63 0 31 4 62 9 70 11 17 3 21 131 -77 82
-62 112 -73 118 -40 2 11 -27 41 -87 89 -50 39 -91 73 -91 75 0 1 25 11 57 21
78 25 113 61 113 120 0 64 -23 107 -68 126 -37 16 -118 29 -137 22z m126 -84
c16 -16 29 -40 29 -53 0 -40 -49 -77 -115 -88 -32 -5 -62 -7 -66 -4 -10 6 -12
157 -2 167 3 4 33 7 65 7 52 0 63 -4 89 -29z"/>
<path d="M9827 1440 c-27 -5 -52 -12 -55 -15 -4 -4 -8 -108 -10 -231 -3 -200
-2 -224 13 -224 20 0 35 40 35 95 0 24 5 47 10 50 6 4 41 -18 78 -47 130 -105
163 -120 161 -75 0 15 -25 41 -82 87 -44 36 -81 69 -81 73 -1 5 23 17 53 27
100 33 131 96 92 184 -15 34 -29 50 -53 60 -47 20 -106 25 -161 16z m132 -64
c38 -20 55 -60 39 -94 -18 -37 -64 -60 -128 -64 l-55 -3 -3 74 c-2 41 -1 80 2
88 7 18 109 17 145 -1z"/>
<path d="M13753 1443 c-10 -3 -13 -42 -13 -148 0 -79 -4 -146 -9 -149 -5 -4
-31 31 -57 76 -26 46 -66 113 -90 150 -36 56 -46 66 -65 61 -22 -6 -22 -8 -15
-126 3 -66 6 -167 6 -224 0 -86 3 -105 16 -110 28 -10 34 18 34 165 0 102 3
143 11 140 7 -2 47 -67 89 -143 88 -158 94 -167 115 -159 13 5 15 41 15 229 0
226 -4 250 -37 238z"/>
<path d="M14993 1441 c-24 -4 -46 -11 -50 -15 -8 -8 -22 -422 -15 -444 3 -7
12 -12 21 -10 17 3 28 40 30 100 0 20 5 39 10 43 6 3 53 -28 106 -70 53 -41
105 -75 116 -75 35 0 21 37 -28 77 -26 21 -65 55 -87 75 -37 33 -39 37 -21 43
116 36 151 69 148 140 -2 59 -27 104 -69 121 -44 19 -108 24 -161 15z m151
-80 c65 -68 14 -137 -105 -143 l-54 -3 -3 74 c-2 41 -1 80 2 88 4 9 25 13 69
13 57 0 66 -3 91 -29z"/>
<path d="M5632 1208 l3 -233 123 -1 c156 -1 174 2 170 30 -3 20 -9 21 -126 24
l-123 3 3 92 3 92 77 0 c79 0 106 11 95 39 -5 12 -26 16 -89 18 l-83 3 0 55 0
55 80 2 c44 1 92 2 108 2 20 1 27 6 27 20 0 27 -18 31 -151 31 l-119 0 2 -232z"/>
<path d="M6210 1398 c-6 -24 -33 -118 -61 -211 -56 -190 -60 -220 -28 -215 18
2 26 18 45 82 12 43 26 82 32 88 5 5 31 8 57 6 l47 -3 28 -78 c15 -43 32 -83
38 -89 13 -13 42 -3 42 14 0 7 -34 110 -74 228 -62 181 -77 215 -94 218 -17 3
-23 -5 -32 -40z m59 -147 c6 -18 8 -37 5 -42 -14 -23 -67 0 -59 25 27 77 33
79 54 17z"/>
<path d="M7437 1434 c-20 -20 7 -88 64 -167 28 -39 29 -44 29 -157 0 -91 3
-120 15 -130 28 -24 35 0 35 127 l0 126 49 77 c58 90 65 114 35 118 -16 2 -31
-12 -64 -63 -49 -76 -51 -75 -105 17 -31 51 -45 65 -58 52z"/>
<path d="M8817 1433 c-9 -8 -9 -410 0 -442 l6 -23 139 4 c143 4 173 13 149 42
-10 12 -40 16 -129 18 l-117 3 -3 78 c-4 105 1 111 95 104 66 -6 73 -4 78 15
10 31 -3 37 -90 40 l-80 3 0 55 0 55 113 3 c102 2 112 4 112 21 0 10 -7 22
-16 25 -21 8 -249 8 -257 -1z"/>
<path d="M9407 1433 c-15 -27 -128 -437 -123 -449 3 -8 14 -14 25 -14 15 0 23
10 31 43 37 143 30 132 84 135 27 2 54 -2 60 -8 6 -6 23 -46 37 -88 26 -77 51
-103 65 -67 4 9 -26 115 -66 236 -59 175 -77 219 -91 219 -10 0 -20 -3 -22 -7z
m43 -178 c12 -37 7 -55 -14 -55 -26 0 -37 25 -25 59 14 40 25 39 39 -4z"/>
<path d="M10263 1433 c-10 -4 -13 -55 -13 -211 0 -227 3 -252 31 -252 17 0 19
11 21 150 2 90 7 151 13 152 6 1 47 -63 92 -143 66 -115 87 -144 104 -144 21
0 22 4 21 115 -1 344 -1 340 -21 340 -26 0 -31 -26 -31 -167 0 -68 -4 -123 -9
-123 -5 0 -46 63 -92 140 -46 77 -88 141 -94 143 -5 2 -16 2 -22 0z"/>
<path d="M10760 1206 c0 -225 1 -236 19 -236 10 0 22 7 25 15 11 30 17 231 9
340 -8 104 -9 110 -30 113 l-23 3 0 -235z"/>
<path d="M11276 1403 c-3 -21 -6 -86 -6 -145 0 -60 -4 -108 -9 -108 -5 0 -46
63 -92 140 -68 114 -88 140 -106 140 l-23 0 0 -199 c0 -226 4 -261 31 -261 17
0 19 12 21 150 2 90 7 151 13 152 6 1 47 -63 92 -143 58 -101 89 -145 103
-147 11 -2 20 -2 20 0 8 70 10 224 5 325 -6 118 -9 133 -25 133 -12 0 -19 -11
-24 -37z"/>
<path d="M13036 1418 c-8 -30 -8 -295 1 -381 l6 -68 119 2 c155 3 178 7 178
29 0 26 -19 30 -140 30 l-108 0 -4 58 c-1 31 -1 73 2 92 l5 35 80 0 c79 0 80
0 80 25 0 24 -2 25 -82 28 l-83 3 0 59 0 60 110 0 c101 0 110 2 110 19 0 27
-18 31 -150 31 -114 0 -118 -1 -124 -22z"/>
<path d="M14459 1358 c-3 -157 2 -371 7 -380 6 -9 240 -9 277 0 12 3 17 12 15
26 -3 20 -9 21 -126 24 l-123 3 3 92 3 92 80 0 c80 0 80 0 83 27 l3 27 -83 3
-83 3 0 55 0 55 80 2 c44 1 92 2 108 2 20 1 27 6 27 20 0 27 -18 31 -151 31
l-119 0 -1 -82z"/>
<path d="M12632 1410 c-22 -14 -42 -39 -59 -76 -22 -48 -25 -66 -21 -142 4
-104 25 -153 79 -189 28 -19 52 -25 88 -25 61 0 134 36 139 70 5 34 -22 37
-65 8 -54 -37 -100 -35 -140 7 -41 41 -53 75 -53 143 0 64 17 109 53 143 27
25 25 25 148 5 27 -4 38 -2 42 9 7 20 -9 33 -63 52 -58 21 -109 19 -148 -5z"/>
<path d="M2871 1141 c-8 -5 -23 -8 -33 -6 -10 2 -18 -1 -18 -6 0 -6 -4 -8 -9
-5 -13 9 -39 -27 -35 -49 2 -11 5 -32 8 -47 6 -40 14 -48 46 -48 23 0 28 -4
27 -20 -1 -11 -8 -20 -17 -20 -9 0 -20 -4 -25 -9 -6 -6 -27 -6 -55 1 -59 13
-95 15 -97 5 -1 -4 -11 -16 -22 -25 -22 -20 -40 -78 -19 -66 7 4 5 -2 -5 -13
-19 -22 -15 -30 18 -29 16 1 21 11 28 54 5 28 13 52 18 52 6 0 7 6 4 13 -4 6
1 3 10 -8 11 -14 18 -16 23 -8 7 11 78 10 90 -1 3 -3 0 -12 -6 -19 -7 -8 -8
-18 -4 -22 4 -5 2 -5 -4 -2 -7 4 -17 0 -24 -8 -6 -7 -18 -11 -26 -8 -8 3 -14
0 -14 -7 0 -9 -3 -10 -14 -1 -11 9 -13 6 -13 -14 0 -19 4 -24 16 -21 49 14
104 16 141 6 40 -11 45 -10 67 12 23 23 23 24 7 78 -18 62 -31 83 -47 73 -17
-10 5 21 25 35 26 19 20 122 -7 122 -8 0 -15 4 -17 10 -2 5 -9 6 -17 1z m-44
-226 c0 -8 -4 -12 -9 -9 -5 3 -6 10 -3 15 9 13 12 11 12 -6z m28 -35 c3 -6 -1
-13 -10 -16 -19 -8 -30 0 -20 15 8 14 22 14 30 1z"/>
<path d="M4327 1098 c-27 -9 -28 -13 -22 -47 4 -20 8 -49 9 -66 0 -16 6 -29
11 -28 6 1 11 -7 12 -16 1 -14 -8 -20 -39 -24 -23 -3 -49 -1 -59 6 -20 12 -38
2 -23 -13 5 -5 19 -11 31 -13 11 -1 28 -8 35 -15 8 -6 18 -9 21 -5 17 16 18
-35 3 -78 -10 -26 -16 -60 -14 -76 3 -24 0 -28 -19 -25 -13 2 -23 -2 -23 -7 0
-6 6 -11 14 -11 8 0 20 -2 28 -5 9 -4 14 3 16 22 2 30 48 74 69 66 7 -3 10 -9
7 -14 -3 -5 2 -9 10 -9 9 0 16 -4 16 -8 0 -5 6 -9 13 -9 6 0 23 -3 36 -7 17
-6 22 -5 19 5 -3 8 -14 15 -25 17 -19 3 -21 8 -16 65 7 72 8 74 28 57 13 -10
15 -9 15 8 0 12 -13 31 -29 43 -27 20 -28 23 -13 40 9 10 17 26 18 35 2 10 5
28 9 41 3 13 1 23 -5 23 -5 0 -9 3 -9 8 4 21 -4 30 -28 37 -50 13 -68 13 -96
3z"/>
<path d="M4470 832 c0 -5 7 -13 16 -16 10 -4 14 -1 12 6 -5 15 -28 23 -28 10z"/>
<path d="M4118 770 c-19 -15 -21 -22 -13 -46 13 -36 53 -44 78 -16 14 15 15
25 8 44 -12 33 -45 41 -73 18z"/>
</g>
</svg>
